<svg width="20" height="23" viewBox="0 0 20 23" fill="none" xmlns="http://www.w3.org/2000/svg">
<path d="M17.7778 13.3239V9.2C17.7778 5.50045 15.35 2.38395 12.0611 1.4467C11.7356 0.598 10.94 0 10 0C9.06 0 8.26445 0.598 7.93889 1.4467C4.65 2.3851 2.22222 5.50045 2.22222 9.2V13.3239L0.325557 15.2869C0.222176 15.3936 0.14019 15.5203 0.0843171 15.6598C0.0284446 15.7994 -0.000210499 15.949 1.16408e-06 16.1V18.4C1.16408e-06 18.705 0.117064 18.9975 0.325438 19.2132C0.533812 19.4288 0.816427 19.55 1.11111 19.55H18.8889C19.1836 19.55 19.4662 19.4288 19.6746 19.2132C19.8829 18.9975 20 18.705 20 18.4V16.1C20.0002 15.949 19.9716 15.7994 19.9157 15.6598C19.8598 15.5203 19.7778 15.3936 19.6744 15.2869L17.7778 13.3239ZM17.7778 17.25H2.22222V16.5761L4.11889 14.613C4.22227 14.5064 4.30426 14.3797 4.36013 14.2402C4.416 14.1006 4.44466 13.951 4.44445 13.8V9.2C4.44445 6.02945 6.93667 3.45 10 3.45C13.0633 3.45 15.5556 6.02945 15.5556 9.2V13.8C15.5556 14.1059 15.6722 14.398 15.8811 14.613L17.7778 16.5761V17.25ZM10 23C10.6881 23.0009 11.3594 22.7799 11.9205 22.3677C12.4817 21.9555 12.9048 21.3726 13.1311 20.7H6.86889C7.09518 21.3726 7.51831 21.9555 8.07946 22.3677C8.6406 22.7799 9.31189 23.0009 10 23Z" fill="black" fill-opacity="0.3"/>
</svg>
