<svg width="28" height="28" viewBox="0 0 28 28" fill="none" xmlns="http://www.w3.org/2000/svg">
<path d="M13.9993 0C6.28009 0.00139993 0 6.28149 0 14.0007C0 21.7199 6.28009 28 14.0007 28C21.7185 28 27.9986 21.7199 28 14.0007C28 6.28149 21.7199 0.00139993 13.9993 0ZM14.0007 25.2001C7.82421 25.2001 2.79986 20.1758 2.79986 14.0007C2.79986 7.82561 7.82421 2.80126 13.9993 2.79986C20.1758 2.80126 25.2001 7.82561 25.2001 14.0007C25.1987 20.1758 20.1744 25.2001 14.0007 25.2001Z" fill="black"/>
<path d="M14.0011 12.601H8.40137V15.4008H14.0011V19.609L19.6078 14.0023L14.0011 8.39697V12.601Z" fill="black"/>
</svg>
