<svg width="28" height="28" viewBox="0 0 28 28" fill="none" xmlns="http://www.w3.org/2000/svg">
<path d="M14.0007 0C21.7199 0.00139993 28 6.28149 28 14.0007C28 21.7199 21.7199 28 13.9993 28C6.28148 28 0.00139999 21.7199 0 14.0007C0 6.28149 6.28009 0.00139993 14.0007 0ZM13.9993 25.2001C20.1758 25.2001 25.2001 20.1758 25.2001 14.0007C25.2001 7.82561 20.1758 2.80126 14.0007 2.79986C7.82421 2.80126 2.79986 7.82561 2.79986 14.0007C2.80126 20.1758 7.82561 25.2001 13.9993 25.2001Z" fill="black"/>
<path d="M13.9989 12.601H19.5986V15.4008H13.9989V19.609L8.39219 14.0023L13.9989 8.39697V12.601Z" fill="black"/>
</svg>
