<svg width="18" height="20" viewBox="0 0 18 20" fill="none" xmlns="http://www.w3.org/2000/svg">
<path d="M9 0C4.037 0 0 4.038 0 9C0 12.328 1.82 15.232 4.513 16.79L2.446 18.168C2.26749 18.287 2.132 18.4603 2.05954 18.6623C1.98707 18.8642 1.98148 19.0841 2.04358 19.2895C2.10569 19.4948 2.23219 19.6748 2.40442 19.8027C2.57664 19.9307 2.78545 19.9998 3 20H15C15.2146 20 15.4236 19.931 15.596 19.8032C15.7684 19.6753 15.895 19.4953 15.9573 19.2899C16.0195 19.0845 16.014 18.8645 15.9415 18.6625C15.8691 18.4604 15.7336 18.2871 15.555 18.168L13.488 16.79C16.18 15.232 18 12.328 18 9C18 4.038 13.963 0 9 0ZM9 16C5.141 16 2 12.859 2 9C2 5.14 5.141 2 9 2C12.859 2 16 5.14 16 9C16 12.859 12.859 16 9 16Z" fill="#EB8E02"/>
<path d="M9 4C6.243 4 4 6.243 4 9C4 11.757 6.243 14 9 14C11.757 14 14 11.757 14 9C14 6.243 11.757 4 9 4ZM9 12C7.346 12 6 10.654 6 9C6 7.346 7.346 6 9 6C10.654 6 12 7.346 12 9C12 10.654 10.654 12 9 12Z" fill="#EB8E02"/>
</svg>
