<svg width="20" height="20" viewBox="0 0 20 20" fill="none" xmlns="http://www.w3.org/2000/svg">
<path d="M10 20C11.1046 20 12 19.1046 12 18C12 16.8954 11.1046 16 10 16C8.89543 16 8 16.8954 8 18C8 19.1046 8.89543 20 10 20Z" fill="white"/>
<path d="M10 4C11.1046 4 12 3.10457 12 2C12 0.89543 11.1046 0 10 0C8.89543 0 8 0.89543 8 2C8 3.10457 8.89543 4 10 4Z" fill="white"/>
<path d="M4.34375 17.6572C5.44832 17.6572 6.34375 16.7618 6.34375 15.6572C6.34375 14.5527 5.44832 13.6572 4.34375 13.6572C3.23918 13.6572 2.34375 14.5527 2.34375 15.6572C2.34375 16.7618 3.23918 17.6572 4.34375 17.6572Z" fill="white"/>
<path d="M15.6562 6.34277C16.7608 6.34277 17.6562 5.44734 17.6562 4.34277C17.6562 3.2382 16.7608 2.34277 15.6562 2.34277C14.5517 2.34277 13.6562 3.2382 13.6562 4.34277C13.6562 5.44734 14.5517 6.34277 15.6562 6.34277Z" fill="white"/>
<path d="M2.001 12.001C3.10612 12.001 4.002 11.1051 4.002 10C4.002 8.8949 3.10612 7.99902 2.001 7.99902C0.895878 7.99902 0 8.8949 0 10C0 11.1051 0.895878 12.001 2.001 12.001Z" fill="white"/>
<path d="M18 12C19.1046 12 20 11.1046 20 10C20 8.89543 19.1046 8 18 8C16.8954 8 16 8.89543 16 10C16 11.1046 16.8954 12 18 12Z" fill="white"/>
<path d="M4.34375 6.34375C5.44832 6.34375 6.34375 5.44832 6.34375 4.34375C6.34375 3.23918 5.44832 2.34375 4.34375 2.34375C3.23918 2.34375 2.34375 3.23918 2.34375 4.34375C2.34375 5.44832 3.23918 6.34375 4.34375 6.34375Z" fill="white"/>
<path d="M15.6562 17.6582C16.7608 17.6582 17.6562 16.7628 17.6562 15.6582C17.6562 14.5536 16.7608 13.6582 15.6562 13.6582C14.5517 13.6582 13.6562 14.5536 13.6562 15.6582C13.6562 16.7628 14.5517 17.6582 15.6562 17.6582Z" fill="white"/>
</svg>
