<svg width="20" height="15" viewBox="0 0 20 15" fill="none" xmlns="http://www.w3.org/2000/svg">
<path d="M10 0C4.486 0 3.48971e-06 4.486 3.48971e-06 10C-0.00129293 11.5434 0.358639 13.0656 1.051 14.445C1.221 14.785 1.567 15 1.946 15H18.053C18.432 15 18.779 14.785 18.949 14.445C19.6414 13.0656 20.0013 11.5434 20 10C20 4.486 15.514 0 10 0ZM17.41 13H2.59C2.19924 12.0481 1.99879 11.0289 2 10C2 5.589 5.589 2 10 2C14.411 2 18 5.589 18 10C18.0012 11.0289 17.8008 12.0481 17.41 13Z" fill="white"/>
<path d="M8.93871 8.9396C8.72598 9.07871 8.55127 9.26863 8.43034 9.4922C8.30942 9.71576 8.24609 9.96593 8.24609 10.2201C8.24609 10.4743 8.30942 10.7244 8.43034 10.948C8.55127 11.1716 8.72598 11.3615 8.93871 11.5006C9.10679 11.6112 9.29504 11.6876 9.49268 11.7253C9.69032 11.763 9.89346 11.7614 10.0905 11.7206C10.2875 11.6797 10.4745 11.6004 10.6408 11.4871C10.8071 11.3739 10.9495 11.2289 11.0597 11.0606L15.0217 5.0226C15.0249 5.01732 15.0266 5.01127 15.0266 5.0051C15.0266 4.99894 15.0249 4.99289 15.0217 4.9876C15.017 4.98039 15.0096 4.97531 15.0012 4.97344C14.9928 4.97157 14.984 4.97307 14.9767 4.9776L8.93871 8.9396Z" fill="white"/>
</svg>
