<svg width="20" height="20" viewBox="0 0 20 20" fill="none" xmlns="http://www.w3.org/2000/svg">
<path d="M7.17181 14.2418L9.99981 11.4138L12.8278 14.2418L14.2418 12.8278L11.4138 9.99981L14.2418 7.17181L12.8278 5.75781L9.99981 8.58581L7.17181 5.75781L5.75781 7.17181L8.58581 9.99981L5.75781 12.8278L7.17181 14.2418Z" fill="black"/>
<path d="M10 20C15.514 20 20 15.514 20 10C20 4.486 15.514 0 10 0C4.486 0 0 4.486 0 10C0 15.514 4.486 20 10 20ZM10 2C14.411 2 18 5.589 18 10C18 14.411 14.411 18 10 18C5.589 18 2 14.411 2 10C2 5.589 5.589 2 10 2Z" fill="black"/>
</svg>
