<svg width="40" height="40" viewBox="0 0 40 40" fill="none" xmlns="http://www.w3.org/2000/svg">
<path d="M30 25H6.25C2.79992 25.0041 0.00414062 27.7999 0 31.25V40H2.5V31.25C2.5 29.1789 4.17891 27.5 6.25 27.5H27.5V30H15V40H17.5V32.5H30V25Z" fill="#CEEE0A"/>
<path d="M7.5 32.5H5V40H7.5V32.5Z" fill="#CEEE0A"/>
<path d="M11.25 22.5C14.7018 22.5 17.5 19.7018 17.5 16.25C17.5 12.7982 14.7018 10 11.25 10C7.7982 10 5 12.7982 5 16.25C5.00414 19.7001 7.79992 22.4959 11.25 22.5ZM11.25 12.5C13.3211 12.5 15 14.1789 15 16.25C15 18.3211 13.3211 20 11.25 20C9.17891 20 7.5 18.3211 7.5 16.25C7.5 14.1789 9.17891 12.5 11.25 12.5Z" fill="#CEEE0A"/>
<path d="M0 0V7.5H35V10H37.5V7.5H40V0H0ZM37.5 5H2.5V2.5H37.5V5Z" fill="#CEEE0A"/>
<path d="M37.5 12.5H35V15H37.5V12.5Z" fill="#CEEE0A"/>
<path d="M37.5 17.5H35V20H37.5V17.5Z" fill="#CEEE0A"/>
<path d="M35 35H20V37.5H37.5V22.5H35V35Z" fill="#CEEE0A"/>
<path d="M32.5 12.5H20V15H32.5V12.5Z" fill="#CEEE0A"/>
<path d="M32.5 17.5H25V20H32.5V17.5Z" fill="#CEEE0A"/>
<path d="M22.5 17.5H20V20H22.5V17.5Z" fill="#CEEE0A"/>
</svg>
