<svg width="16" height="16" viewBox="0 0 16 16" fill="none" xmlns="http://www.w3.org/2000/svg">
<path d="M0.866348 15.9938C0.934959 16.0021 1.00432 16.0021 1.07293 15.9938L4.516 15.1333C4.66874 15.097 4.80864 15.0196 4.92056 14.9095L15.4994 4.29956C15.82 3.97711 16 3.54092 16 3.08625C16 2.63159 15.82 2.1954 15.4994 1.87295L14.1394 0.504748C13.9795 0.344735 13.7896 0.217795 13.5806 0.131187C13.3716 0.0445786 13.1476 0 12.9214 0C12.6952 0 12.4711 0.0445786 12.2621 0.131187C12.0532 0.217795 11.8633 0.344735 11.7034 0.504748L1.12458 11.0803C1.01336 11.1927 0.933269 11.3321 0.892171 11.4848L0.0314034 14.9268C0.000465619 15.0381 -0.0077229 15.1545 0.00732626 15.2691C0.0223754 15.3837 0.060354 15.494 0.118996 15.5936C0.177639 15.6932 0.255744 15.78 0.348652 15.8487C0.44156 15.9175 0.547368 15.9668 0.659764 15.9938C0.728375 16.0021 0.797736 16.0021 0.866348 15.9938ZM12.9171 1.71806L14.2857 3.08625L12.9171 4.45445L11.5571 3.08625L12.9171 1.71806ZM2.51041 12.1301L10.3348 4.29956L11.7034 5.66776L3.87043 13.4983L2.05421 13.9458L2.51041 12.1301Z" fill="white"/>
</svg>
