<svg width="43" height="43" viewBox="0 0 43 43" fill="none" xmlns="http://www.w3.org/2000/svg">
<g clip-path="url(#clip0_16_20385)">
<path d="M41.6434 2.23817L22.8563 2.23817V1.35645C22.8563 0.607357 22.249 0 21.4999 0C20.7508 0 20.1434 0.607357 20.1434 1.35645V2.23817L1.35631 2.23817C0.607212 2.23817 0 2.84553 0 3.59463L0 8.07097C0 8.82007 0.607212 9.42742 1.35631 9.42742H2.23803L2.23803 32.6909C2.23803 33.44 2.84538 34.0473 3.59448 34.0473H18.7869L13.7002 40.8297C13.2508 41.429 13.3721 42.2793 13.9715 42.7287C14.2155 42.9118 14.501 43 14.7843 43C15.1967 43 15.6039 42.8127 15.8705 42.4574L20.1434 36.7602V41.6435C20.1434 42.3926 20.7508 43 21.4999 43C22.249 43 22.8563 42.3926 22.8563 41.6435V36.7602L27.1292 42.4574C27.3958 42.8127 27.8029 43 28.2154 43C28.4987 43 28.7842 42.9117 29.0282 42.7287C29.6276 42.2793 29.7491 41.4288 29.2995 40.8297L24.2128 34.0473H39.4052C40.1543 34.0473 40.7615 33.44 40.7615 32.6909V9.42742H41.6434C42.3925 9.42742 42.9997 8.82007 42.9997 8.07097V3.59463C42.9997 2.84553 42.3925 2.23817 41.6434 2.23817ZM2.71276 6.71451V4.95108L40.2868 4.95108V6.71451L2.71276 6.71451ZM38.0488 31.3344L4.95094 31.3344L4.95094 9.42742L38.0486 9.42742V31.3344H38.0488Z" fill="#CEEE0A"/>
<path d="M10.3096 20.6182H30.4531C31.2022 20.6182 31.8096 20.0108 31.8096 19.2617C31.8096 18.5126 31.2022 17.9053 30.4531 17.9053H10.3096C9.56048 17.9053 8.95312 18.5126 8.95312 19.2617C8.95312 20.0108 9.56048 20.6182 10.3096 20.6182Z" fill="#CEEE0A"/>
<path d="M10.3096 16.1426H14.7859C15.535 16.1426 16.1424 15.5354 16.1424 14.7861C16.1424 14.037 15.535 13.4297 14.7859 13.4297H10.3096C9.56048 13.4297 8.95312 14.037 8.95312 14.7861C8.95312 15.5354 9.56048 16.1426 10.3096 16.1426Z" fill="#CEEE0A"/>
<path d="M10.3096 25.0947H23.7386C24.4877 25.0947 25.0951 24.4874 25.0951 23.7383C25.0951 22.9892 24.4877 22.3818 23.7386 22.3818H10.3096C9.56048 22.3818 8.95312 22.9892 8.95312 23.7383C8.95312 24.4874 9.56048 25.0947 10.3096 25.0947Z" fill="#CEEE0A"/>
</g>
<defs>
<clipPath id="clip0_16_20385">
<rect width="43" height="43" fill="white"/>
</clipPath>
</defs>
</svg>
