<svg width="43" height="43" viewBox="0 0 43 43" fill="none" xmlns="http://www.w3.org/2000/svg">
<rect width="43" height="43" fill="#CEEE0A"/>
<path d="M21.6055 11C16.0915 11 11.6055 15.486 11.6055 21C11.6055 26.514 16.0915 31 21.6055 31C27.1195 31 31.6055 26.514 31.6055 21C31.6055 15.486 27.1195 11 21.6055 11ZM21.6055 29C17.1945 29 13.6055 25.411 13.6055 21C13.6055 16.589 17.1945 13 21.6055 13C26.0165 13 29.6055 16.589 29.6055 21C29.6055 25.411 26.0165 29 21.6055 29Z" fill="black"/>
<path d="M22.6055 16H20.6055V22H26.6055V20H22.6055V16Z" fill="black"/>
</svg>
