<svg width="43" height="43" viewBox="0 0 43 43" fill="none" xmlns="http://www.w3.org/2000/svg">
<rect width="43" height="43" fill="#CEEE0A"/>
<path d="M20.4201 31.815C20.5897 31.935 20.7923 31.9995 21.0001 31.9995C21.2079 31.9995 21.4105 31.935 21.5801 31.815C21.8841 31.598 29.0291 26.44 29.0001 20C29.0001 15.589 25.4111 12 21.0001 12C16.5891 12 13.0001 15.589 13.0001 19.996C12.9711 26.44 20.1161 31.598 20.4201 31.815ZM21.0001 14C24.3091 14 27.0001 16.691 27.0001 20.004C27.0211 24.442 22.6121 28.427 21.0001 29.735C19.3891 28.427 14.9791 24.442 15.0001 20C15.0001 16.691 17.6911 14 21.0001 14Z" fill="black"/>
<path d="M20 24H22V21H25V19H22V16H20V19H17V21H20V24Z" fill="black"/>
</svg>
