<svg width="40" height="40" viewBox="0 0 40 40" fill="none" xmlns="http://www.w3.org/2000/svg">
<g clip-path="url(#clip0_16_20398)">
<path d="M33.75 3.75012H28.75V2.50006C28.75 1.75011 28.2501 1.25 27.5 1.25C26.7499 1.25 26.2499 1.74997 26.2499 2.50006V3.75012H13.7501V2.50006C13.7501 1.75011 13.2501 1.25 12.5 1.25C11.7501 1.25 11.25 1.74997 11.25 2.50006V3.75012H6.25C2.74996 3.75012 0 6.50007 0 10.0001V32.5002C0 36.0002 2.74996 38.7502 6.25 38.7502H33.75C37.25 38.7502 40 36.0002 40 32.5002V10.0001C40 6.50007 37.25 3.75012 33.75 3.75012ZM2.49997 10.0001C2.49997 8.00011 4.25 6.25009 6.25 6.25009H11.25V7.50015C11.25 8.2501 11.7499 8.75021 12.5 8.75021C13.25 8.75021 13.7501 8.25024 13.7501 7.50015V6.25009H26.2501V7.50015C26.2501 8.2501 26.75 8.75021 27.5001 8.75021C28.2502 8.75021 28.7502 8.25024 28.7502 7.50015V6.25009H33.7501C35.7501 6.25009 37.5002 8.00011 37.5002 10.0001V13.7502H2.49997V10.0001ZM37.5 32.5002C37.5 34.5002 35.75 36.2502 33.75 36.2502H6.25C4.25 36.2502 2.49997 34.5002 2.49997 32.5002V16.2501H37.5V32.5002Z" fill="#CEEE0A"/>
<path d="M8.74997 32.4999C9.49992 32.4999 10 32.25 10.5 31.75C11 31.25 11.2499 30.4999 11.2499 30C11.2499 29.5 11 28.7499 10.5 28.2499C9.50007 27.25 8.00002 27.25 6.99995 28.2499C6.49998 28.7499 6.25 29.2499 6.25 30C6.25 30.4999 6.49998 31.25 6.99995 31.75C7.49991 32.25 8.00002 32.4999 8.74997 32.4999Z" fill="#CEEE0A"/>
<path d="M8.74997 25C9.49992 25 10 24.75 10.5 24.25C11 23.75 11.2499 22.9999 11.2499 22.5C11.2499 22 11 21.2499 10.5 20.7499C9.50007 19.75 8.00002 19.75 6.99995 20.7499C6.49998 21.2499 6.25 21.7499 6.25 22.5C6.25 23.2501 6.49998 23.75 6.99995 24.25C7.49991 24.75 8.00002 25 8.74997 25Z" fill="#CEEE0A"/>
<path d="M16.25 32.4999C16.9999 32.4999 17.5 32.25 18 31.75C18.5 31.25 18.7499 30.4999 18.7499 30C18.7499 29.5 18.5 28.7499 18 28.2499C17.0001 27.25 15.5 27.25 14.4999 28.2499C14 28.7499 13.75 29.5 13.75 30C13.75 30.4999 14 31.25 14.4999 31.75C14.9999 32.25 15.5 32.4999 16.25 32.4999Z" fill="#CEEE0A"/>
<path d="M16.25 25C16.9999 25 17.5 24.75 18 24.25C18.5 23.75 18.7499 22.9999 18.7499 22.5C18.7499 22 18.5 21.2499 18 20.7499C17.0001 19.75 15.5 19.75 14.4999 20.7499C14 21.2499 13.75 22 13.75 22.5C13.75 22.9999 14 23.75 14.4999 24.25C14.9999 24.75 15.5 25 16.25 25Z" fill="#CEEE0A"/>
<path d="M23.75 32.4999C24.4999 32.4999 25 32.25 25.5 31.75C26 31.25 26.2499 30.7501 26.2499 30C26.2499 29.2499 26 28.7499 25.5 28.2499C24.5001 27.25 23 27.25 21.9999 28.2499C21.5 28.7499 21.25 29.5 21.25 30C21.25 30.4999 21.5 31.25 21.9999 31.75C22.4999 32.25 23 32.4999 23.75 32.4999Z" fill="#CEEE0A"/>
<path d="M23.75 25C24.4999 25 25 24.75 25.5 24.25C26 23.75 26.2499 23.2501 26.2499 22.5C26.2499 22 26 21.2499 25.5 20.7499C24.5001 19.75 23 19.75 21.9999 20.7499C21.5 21.2499 21.25 22 21.25 22.5C21.25 22.9999 21.5 23.75 21.9999 24.25C22.4999 24.75 23 25 23.75 25Z" fill="#CEEE0A"/>
<path d="M31.25 32.4999C31.9999 32.4999 32.5 32.25 33 31.75C33.5 31.25 33.7499 30.4999 33.7499 30C33.7499 29.5 33.5 28.7499 33 28.2499C32.0001 27.25 30.5 27.25 29.4999 28.2499C29 28.7499 28.75 29.2499 28.75 30C28.75 30.4999 29 31.25 29.4999 31.75C29.9999 32.25 30.5 32.4999 31.25 32.4999Z" fill="#CEEE0A"/>
<path d="M31.25 25C31.9999 25 32.5 24.75 33 24.25C33.5 23.75 33.7499 23.2501 33.7499 22.5C33.7499 22 33.5 21.2499 33 20.7499C32.0001 19.75 30.5 19.75 29.4999 20.7499C29 21.2499 28.75 22 28.75 22.5C28.75 22.9999 29 23.75 29.4999 24.25C29.9999 24.75 30.5 25 31.25 25Z" fill="#CEEE0A"/>
</g>
<defs>
<clipPath id="clip0_16_20398">
<rect width="40" height="40" fill="white"/>
</clipPath>
</defs>
</svg>
