<svg width="39" height="39" viewBox="0 0 39 39" fill="none" xmlns="http://www.w3.org/2000/svg">
<circle cx="19.5" cy="19.5" r="19.5" fill="#C4C4C4" fill-opacity="0.62"/>
<path d="M19.999 10C14.477 10 10 14.477 10 19.999C10 24.989 13.656 29.125 18.437 29.878V22.89H15.897V19.999H18.437V17.796C18.437 15.288 19.93 13.905 22.213 13.905C23.307 13.905 24.453 14.1 24.453 14.1V16.559H23.189C21.949 16.559 21.561 17.331 21.561 18.122V19.997H24.332L23.889 22.888H21.561V29.876C26.342 29.127 29.998 24.99 29.998 19.999C29.998 14.477 25.521 10 19.999 10Z" fill="white"/>
</svg>
