<svg width="39" height="39" viewBox="0 0 39 39" fill="none" xmlns="http://www.w3.org/2000/svg">
<circle cx="19.5" cy="19.5" r="19.5" fill="#C4C4C4" fill-opacity="0.62"/>
<path d="M27.1111 12H12.8889C12.6531 12 12.427 12.0937 12.2603 12.2603C12.0937 12.427 12 12.6531 12 12.8889V27.1111C12 27.3469 12.0937 27.573 12.2603 27.7397C12.427 27.9064 12.6531 28 12.8889 28H27.1111C27.3469 28 27.573 27.9064 27.7397 27.7397C27.9064 27.573 28 27.3469 28 27.1111V12.8889C28 12.6531 27.9064 12.427 27.7397 12.2603C27.573 12.0937 27.3469 12 27.1111 12ZM16.7458 25.6329H14.3707V17.9973H16.7458V25.6329ZM15.5582 16.9547C15.1933 16.9547 14.8433 16.8097 14.5852 16.5516C14.3272 16.2936 14.1822 15.9436 14.1822 15.5787C14.1822 15.2137 14.3272 14.8637 14.5852 14.6057C14.8433 14.3476 15.1933 14.2027 15.5582 14.2027C15.9232 14.2027 16.2732 14.3476 16.5312 14.6057C16.7893 14.8637 16.9342 15.2137 16.9342 15.5787C16.9342 15.9436 16.7893 16.2936 16.5312 16.5516C16.2732 16.8097 15.9232 16.9547 15.5582 16.9547ZM25.6338 25.6329H23.2613V21.92C23.2613 21.0347 23.2453 19.896 22.0276 19.896C20.792 19.896 20.6044 20.8613 20.6044 21.8578V25.6338H18.2338V17.9982H20.5093V19.0418H20.5422C20.8578 18.4418 21.6329 17.8089 22.7858 17.8089C25.1893 17.8089 25.6329 19.3893 25.6329 21.4462V25.6329H25.6338Z" fill="white"/>
</svg>
