<svg width="34" height="34" viewBox="0 0 34 34" fill="none" xmlns="http://www.w3.org/2000/svg">
<circle cx="17" cy="17" r="17" fill="#DADADA" fill-opacity="0.47"/>
<path d="M17.0004 10.3854C16.0171 9.49448 14.73 9.00004 13.3941 9C12.6871 9.00073 11.9872 9.13921 11.3347 9.40749C10.6821 9.67576 10.0899 10.0685 9.59206 10.5632C7.46856 12.6643 7.46946 15.9508 9.59387 18.043L16.2107 24.5625C16.3642 24.8284 16.6602 25 17.0004 25C17.1401 24.9987 17.2775 24.9651 17.4017 24.9019C17.5258 24.8387 17.6332 24.7478 17.7151 24.6363L24.4069 18.043C26.5313 15.9499 26.5313 12.6643 24.4051 10.5596C23.9075 10.0659 23.3158 9.67391 22.6639 9.40625C22.012 9.1386 21.3129 9.00053 20.6066 9C19.2708 9.00022 17.9838 9.49463 17.0004 10.3854V10.3854ZM23.129 11.8169C24.5396 13.2138 24.5405 15.3959 23.1308 16.7857L17.0004 22.8259L10.87 16.7857C9.4603 15.3959 9.4612 13.2138 10.8681 11.8205C11.554 11.1483 12.4511 10.7784 13.3941 10.7784C14.3372 10.7784 15.2307 11.1483 15.9111 11.8187L16.3624 12.2633C16.4461 12.346 16.5455 12.4115 16.655 12.4563C16.7645 12.501 16.8819 12.524 17.0004 12.524C17.1189 12.524 17.2363 12.501 17.3458 12.4563C17.4552 12.4115 17.5547 12.346 17.6384 12.2633L18.0897 11.8187C19.4542 10.4769 21.7663 10.4805 23.129 11.8169V11.8169Z" fill="black"/>
</svg>
