<svg width="42" height="42" viewBox="0 0 42 42" fill="none" xmlns="http://www.w3.org/2000/svg">
<circle cx="21" cy="21" r="20.6" stroke="black" stroke-opacity="0.3" stroke-width="0.8"/>
<path d="M21.0004 14.3854C20.0171 13.4945 18.73 13 17.3941 13C16.6871 13.0007 15.9872 13.1392 15.3347 13.4075C14.6821 13.6758 14.0899 14.0685 13.5921 14.5632C11.4686 16.6643 11.4695 19.9508 13.5939 22.043L20.2107 28.5625C20.3642 28.8284 20.6602 29 21.0004 29C21.1401 28.9987 21.2775 28.9651 21.4017 28.9019C21.5258 28.8387 21.6332 28.7478 21.7151 28.6363L28.4069 22.043C30.5313 19.9499 30.5313 16.6643 28.4051 14.5596C27.9075 14.0659 27.3158 13.6739 26.6639 13.4063C26.012 13.1386 25.3129 13.0005 24.6066 13C23.2708 13.0002 21.9838 13.4946 21.0004 14.3854ZM27.129 15.8169C28.5396 17.2138 28.5405 19.3959 27.1308 20.7857L21.0004 26.8259L14.87 20.7857C13.4603 19.3959 13.4612 17.2138 14.8681 15.8205C15.554 15.1483 16.4511 14.7784 17.3941 14.7784C18.3372 14.7784 19.2307 15.1483 19.9111 15.8187L20.3624 16.2633C20.4461 16.346 20.5455 16.4115 20.655 16.4563C20.7645 16.501 20.8819 16.524 21.0004 16.524C21.1189 16.524 21.2363 16.501 21.3458 16.4563C21.4552 16.4115 21.5547 16.346 21.6384 16.2633L22.0897 15.8187C23.4542 14.4769 25.7663 14.4805 27.129 15.8169Z" fill="black"/>
</svg>
