<svg xmlns="http://www.w3.org/2000/svg" viewBox="0 0 32 40" x="0px" y="0px"><title>Artboard 26</title><g data-name="Layer 2"><path d="M31,26.72l-8.5-8.5a11.54,11.54,0,1,0-4.24,4.24l8.5,8.5a1.05,1.05,0,0,0,.71.29,1,1,0,0,0,.71-.29L31,28.14A1,1,0,0,0,31,26.72ZM3,12.5A9.5,9.5,0,1,1,12.5,22,9.51,9.51,0,0,1,3,12.5ZM27.43,28.84,19.89,21.3a11.74,11.74,0,0,0,1.41-1.41l7.54,7.54Z"/><path d="M13.38,11.57H11.62a.76.76,0,0,1,0-1.51h2.92a1,1,0,0,0,0-2h-1V7.57a1,1,0,0,0-2,0v.51a2.75,2.75,0,0,0,.12,5.49h1.76a.75.75,0,1,1,0,1.5H10.46a1,1,0,0,0,0,2h1v.49a1,1,0,0,0,2,0v-.5a2.75,2.75,0,0,0-.12-5.49Z"/></g><text x="0" y="47" fill="#000000" font-size="5px" font-weight="bold" font-family="'Helvetica Neue', Helvetica, Arial-Unicode, Arial, Sans-serif">Created by endang firmansyah</text><text x="0" y="52" fill="#000000" font-size="5px" font-weight="bold" font-family="'Helvetica Neue', Helvetica, Arial-Unicode, Arial, Sans-serif">from the Noun Project</text></svg>