<svg width="34" height="34" viewBox="0 0 34 34" fill="none" xmlns="http://www.w3.org/2000/svg">
<circle cx="17" cy="17" r="17" fill="#DADADA" fill-opacity="0.47"/>
<path d="M11.9445 20.0209C12.6788 20.0167 13.385 19.7357 13.9247 19.233L19.1771 22.2658C19.1102 22.4999 19.0763 22.7423 19.0764 22.9859C19.071 23.6734 19.3004 24.3418 19.726 24.8785C20.1516 25.4152 20.7473 25.7875 21.4129 25.9326C22.0785 26.0777 22.7733 25.9869 23.3803 25.6753C23.9873 25.3638 24.4695 24.8506 24.7456 24.2221C25.0217 23.5937 25.0749 22.8883 24.8962 22.2249C24.7175 21.5615 24.3179 20.9805 23.7646 20.5797C23.2113 20.1789 22.5382 19.9829 21.8585 20.0246C21.1788 20.0663 20.5341 20.3432 20.0329 20.8087L14.7805 17.7759C14.8439 17.5672 14.8778 17.3504 14.8812 17.1321L20.0413 14.1501C20.5398 14.6049 21.1779 14.8728 21.8488 14.9089C22.5197 14.945 23.1824 14.7471 23.7259 14.3484C24.2694 13.9497 24.6606 13.3744 24.8339 12.719C25.0071 12.0637 24.9519 11.3681 24.6775 10.749C24.4031 10.1298 23.9262 9.62477 23.3268 9.31852C22.7273 9.01226 22.0418 8.92342 21.3852 9.06691C20.7286 9.2104 20.1408 9.57748 19.7205 10.1066C19.3001 10.6357 19.0727 11.2947 19.0764 11.9729C19.0793 12.2163 19.1131 12.4584 19.1771 12.693L14.4029 15.4463C14.1263 15.0142 13.7431 14.6622 13.2909 14.4249C12.8388 14.1877 12.3333 14.0733 11.8241 14.093C11.3149 14.1127 10.8195 14.2659 10.3867 14.5375C9.95389 14.809 9.5985 15.1896 9.35548 15.6418C9.11246 16.094 8.99016 16.6023 9.00062 17.1167C9.01107 17.6311 9.15391 18.1338 9.4151 18.5756C9.67629 19.0174 10.0468 19.3829 10.4903 19.6363C10.9338 19.8897 11.435 20.0222 11.9445 20.0209ZM22.0131 21.7152C22.262 21.7152 22.5053 21.7897 22.7123 21.9293C22.9193 22.0689 23.0806 22.2674 23.1759 22.4996C23.2711 22.7318 23.296 22.9873 23.2475 23.2338C23.1989 23.4803 23.079 23.7067 22.903 23.8844C22.727 24.0621 22.5028 24.1832 22.2586 24.2322C22.0145 24.2812 21.7614 24.2561 21.5315 24.1599C21.3015 24.0637 21.1049 23.9008 20.9666 23.6919C20.8283 23.4829 20.7545 23.2372 20.7545 22.9859C20.7545 22.6489 20.8871 22.3257 21.1231 22.0873C21.3592 21.849 21.6793 21.7152 22.0131 21.7152ZM22.0131 10.7022C22.262 10.7022 22.5053 10.7768 22.7123 10.9164C22.9193 11.056 23.0806 11.2545 23.1759 11.4867C23.2711 11.7189 23.296 11.9744 23.2475 12.2209C23.1989 12.4674 23.079 12.6938 22.903 12.8715C22.727 13.0492 22.5028 13.1702 22.2586 13.2193C22.0145 13.2683 21.7614 13.2431 21.5315 13.1469C21.3015 13.0508 21.1049 12.8879 20.9666 12.6789C20.8283 12.47 20.7545 12.2243 20.7545 11.9729C20.7545 11.6359 20.8871 11.3127 21.1231 11.0744C21.3592 10.8361 21.6793 10.7022 22.0131 10.7022ZM11.9445 15.7851C12.1935 15.7851 12.4368 15.8596 12.6438 15.9993C12.8507 16.1389 13.012 16.3374 13.1073 16.5696C13.2026 16.8018 13.2275 17.0573 13.1789 17.3037C13.1304 17.5502 13.0105 17.7767 12.8345 17.9544C12.6585 18.1321 12.4342 18.2531 12.1901 18.3021C11.9459 18.3512 11.6929 18.326 11.4629 18.2298C11.2329 18.1337 11.0364 17.9708 10.8981 17.7618C10.7598 17.5528 10.686 17.3072 10.686 17.0558C10.686 16.7188 10.8186 16.3956 11.0546 16.1573C11.2906 15.919 11.6107 15.7851 11.9445 15.7851Z" fill="black"/>
</svg>
