<svg width="42" height="42" viewBox="0 0 42 42" fill="none" xmlns="http://www.w3.org/2000/svg">
<circle cx="21" cy="21" r="20.6" stroke="black" stroke-opacity="0.3" stroke-width="0.8"/>
<path d="M15.3126 24.3174C16.1386 24.3127 16.9331 23.9987 17.5403 23.4369L23.4492 26.8265C23.374 27.0881 23.3358 27.359 23.336 27.6313C23.3299 28.3997 23.588 29.1467 24.0667 29.7465C24.5455 30.3464 25.2157 30.7625 25.9645 30.9247C26.7133 31.0869 27.495 30.9853 28.1778 30.6371C28.8607 30.2889 29.4032 29.7154 29.7138 29.013C30.0244 28.3106 30.0843 27.5222 29.8832 26.7808C29.6822 26.0393 29.2327 25.3899 28.6102 24.942C27.9877 24.4941 27.2304 24.275 26.4658 24.3216C25.7011 24.3683 24.9758 24.6777 24.4121 25.198L18.5031 21.8084C18.5744 21.5751 18.6125 21.3328 18.6163 21.0888L24.4215 17.756C24.9822 18.2643 25.7002 18.5637 26.4549 18.6041C27.2096 18.6444 27.9552 18.4232 28.5667 17.9776C29.1781 17.532 29.6182 16.889 29.8131 16.1566C30.008 15.4241 29.9459 14.6467 29.6372 13.9547C29.3285 13.2627 28.792 12.6983 28.1176 12.356C27.4433 12.0137 26.6721 11.9144 25.9334 12.0748C25.1947 12.2351 24.5334 12.6454 24.0605 13.2368C23.5876 13.8281 23.3318 14.5646 23.336 15.3227C23.3392 15.5947 23.3772 15.8652 23.4492 16.1275L18.0783 19.2046C17.7671 18.7217 17.336 18.3283 16.8273 18.0632C16.3186 17.798 15.7499 17.6701 15.1771 17.6922C14.6042 17.7142 14.047 17.8854 13.56 18.1889C13.0731 18.4924 12.6733 18.9178 12.3999 19.4232C12.1265 19.9286 11.9889 20.4967 12.0007 21.0716C12.0125 21.6465 12.1732 22.2084 12.467 22.7022C12.7608 23.1959 13.1777 23.6045 13.6766 23.8877C14.1755 24.1709 14.7393 24.319 15.3126 24.3174ZM26.6397 26.2111C26.9198 26.2111 27.1935 26.2944 27.4263 26.4504C27.6592 26.6065 27.8407 26.8283 27.9478 27.0878C28.055 27.3473 28.083 27.6329 28.0284 27.9084C27.9738 28.1838 27.8389 28.4369 27.6409 28.6355C27.4429 28.8342 27.1906 28.9694 26.9159 29.0242C26.6413 29.079 26.3566 29.0509 26.0979 28.9434C25.8392 28.8359 25.618 28.6539 25.4625 28.4203C25.3069 28.1868 25.2238 27.9122 25.2238 27.6313C25.2238 27.2546 25.373 26.8934 25.6385 26.627C25.9041 26.3607 26.2642 26.2111 26.6397 26.2111ZM26.6397 13.9025C26.9198 13.9025 27.1935 13.9858 27.4263 14.1418C27.6592 14.2979 27.8407 14.5197 27.9478 14.7792C28.055 15.0387 28.083 15.3243 28.0284 15.5998C27.9738 15.8753 27.8389 16.1283 27.6409 16.327C27.4429 16.5256 27.1906 16.6608 26.9159 16.7156C26.6413 16.7704 26.3566 16.7423 26.0979 16.6348C25.8392 16.5273 25.618 16.3453 25.4625 16.1117C25.3069 15.8782 25.2238 15.6036 25.2238 15.3227C25.2238 14.946 25.373 14.5848 25.6385 14.3185C25.9041 14.0521 26.2642 13.9025 26.6397 13.9025ZM15.3126 19.5834C15.5926 19.5834 15.8664 19.6667 16.0992 19.8227C16.3321 19.9788 16.5135 20.2006 16.6207 20.4601C16.7279 20.7196 16.7559 21.0052 16.7013 21.2807C16.6467 21.5562 16.5118 21.8092 16.3138 22.0078C16.1158 22.2065 15.8635 22.3417 15.5888 22.3965C15.3142 22.4513 15.0295 22.4232 14.7708 22.3157C14.512 22.2082 14.2909 22.0262 14.1353 21.7926C13.9797 21.5591 13.8967 21.2845 13.8967 21.0036C13.8967 20.6269 14.0459 20.2657 14.3114 19.9993C14.5769 19.733 14.9371 19.5834 15.3126 19.5834Z" fill="black"/>
</svg>
