<svg width="39" height="39" viewBox="0 0 39 39" fill="none" xmlns="http://www.w3.org/2000/svg">
<circle cx="19.5" cy="19.5" r="19.5" fill="#C4C4C4" fill-opacity="0.62"/>
<path d="M27.633 15.978C27.646 16.153 27.646 16.327 27.646 16.501C27.646 21.826 23.593 27.962 16.186 27.962C13.904 27.962 11.784 27.301 10 26.153C10.324 26.19 10.636 26.203 10.973 26.203C12.786 26.2074 14.5476 25.6011 15.974 24.482C15.1334 24.4668 14.3186 24.1895 13.6432 23.6887C12.9679 23.188 12.4658 22.4889 12.207 21.689C12.456 21.726 12.706 21.751 12.968 21.751C13.329 21.751 13.692 21.701 14.029 21.614C13.1168 21.4298 12.2965 20.9353 11.7076 20.2147C11.1188 19.494 10.7977 18.5916 10.799 17.661V17.611C11.336 17.91 11.959 18.097 12.619 18.122C12.0661 17.7546 11.6127 17.256 11.2993 16.6708C10.986 16.0856 10.8223 15.4319 10.823 14.768C10.823 14.02 11.022 13.334 11.371 12.736C12.3831 13.981 13.6455 14.9996 15.0763 15.7257C16.5072 16.4518 18.0746 16.8692 19.677 16.951C19.615 16.651 19.577 16.34 19.577 16.028C19.5767 15.499 19.6807 14.9751 19.8831 14.4862C20.0854 13.9974 20.3821 13.5533 20.7562 13.1792C21.1303 12.8051 21.5744 12.5084 22.0632 12.3061C22.5521 12.1037 23.076 11.9997 23.605 12C24.765 12 25.812 12.486 26.548 13.272C27.4498 13.0976 28.3145 12.7684 29.104 12.299C28.8034 13.2298 28.1738 14.0191 27.333 14.519C28.1328 14.4278 28.9144 14.2175 29.652 13.895C29.1011 14.6981 28.4185 15.4023 27.633 15.978Z" fill="white"/>
</svg>
